<?xml version="1.0" encoding="UTF-8" standalone="no"?>
<!-- Created with Inkscape (http://www.inkscape.org/) -->

<svg
   width="512"
   height="512"
   viewBox="0 0 512 512"
   version="1.1"
   id="svg5"
   inkscape:version="1.1.1 (3bf5ae0d25, 2021-09-20)"
   sodipodi:docname="hand.svg"
   xmlns:inkscape="http://www.inkscape.org/namespaces/inkscape"
   xmlns:sodipodi="http://sodipodi.sourceforge.net/DTD/sodipodi-0.dtd"
   xmlns="http://www.w3.org/2000/svg"
   xmlns:svg="http://www.w3.org/2000/svg">
  <sodipodi:namedview
     id="namedview7"
     pagecolor="#505050"
     bordercolor="#ffffff"
     borderopacity="1"
     inkscape:pageshadow="0"
     inkscape:pageopacity="0"
     inkscape:pagecheckerboard="1"
     inkscape:document-units="px"
     showgrid="false"
     inkscape:zoom="1.7412109"
     inkscape:cx="167.41223"
     inkscape:cy="283.42344"
     inkscape:window-width="2658"
     inkscape:window-height="1351"
     inkscape:window-x="0"
     inkscape:window-y="2"
     inkscape:window-maximized="0"
     inkscape:current-layer="layer1" />
  <defs
     id="defs2" />
  <g
     inkscape:label="Ebene 1"
     inkscape:groupmode="layer"
     id="layer1"
     style="display:inline">
    <g
       id="rect1360">
      <path
         style="color:#000000;fill:#595959;stroke-width:20;stroke-linecap:round;stroke-linejoin:round;-inkscape-stroke:none"
         d="M 144.11774,14.41106 H 316.6308 c 16.20815,0 29.25658,12.304678 29.25658,27.588965 V 314.38624 c 0,15.28429 -13.04843,27.58897 -29.25658,27.58897 H 144.11774 c -16.20815,0 -29.25659,-12.30468 -29.25659,-27.58897 V 42.000025 c 0,-15.284287 13.04844,-27.588965 29.25659,-27.588965 z"
         id="path8632" />
      <path
         style="color:#000000;fill:#ffffff;stroke-linecap:round;stroke-linejoin:round;-inkscape-stroke:none"
         d="M 144.11719,4.4101562 C 122.84795,4.4101562 104.86133,21.024296 104.86133,42 v 272.38672 c 0,20.9757 17.98662,37.58789 39.25586,37.58789 h 172.51367 c 21.26923,0 39.25586,-16.61219 39.25586,-37.58789 V 42 c 0,-20.975704 -17.98663,-37.5898438 -39.25586,-37.5898438 z m 0,19.9999998 h 172.51367 c 11.14703,0 19.25586,7.997006 19.25586,17.589844 v 272.38672 c 0,9.59284 -8.10883,17.58789 -19.25586,17.58789 H 144.11719 c -11.14703,0 -19.25586,-7.99505 -19.25586,-17.58789 V 42 c 0,-9.592838 8.10883,-17.589844 19.25586,-17.589844 z"
         id="path8629" />
    </g>
    <g
       id="rect1366-9"
       transform="matrix(0.99179623,0.12782897,-0.1685582,0.9856917,0,0)">
      <path
         style="color:#000000;fill:#595959;stroke-width:20.0085;stroke-linecap:round;stroke-linejoin:round;-inkscape-stroke:none"
         d="m 234.53996,-16.557264 h 172.0543 c 16.16504,0 29.17878,12.3479577 29.17878,27.686004 v 273.34433 c 0,15.33805 -13.01374,27.686 -29.17878,27.686 h -172.0543 c -16.16505,0 -29.17878,-12.34795 -29.17878,-27.686 V 11.12874 c 0,-15.3380463 13.01373,-27.686004 29.17878,-27.686004 z"
         id="path8626" />
      <path
         style="color:#000000;fill:#ffffff;stroke-linecap:round;stroke-linejoin:round;-inkscape-stroke:none"
         d="m 234.53906,-26.560547 c -21.25963,0 -39.18164,16.6926197 -39.18164,37.689453 V 284.47266 c 0,20.99683 17.92201,37.6914 39.18164,37.6914 h 172.05469 c 21.25964,0 39.18359,-16.69457 39.18359,-37.6914 V 11.128906 c 0,-20.9968333 -17.92395,-37.689453 -39.18359,-37.689453 z m 0,20.0078126 h 172.05469 c 11.07042,0 19.17578,8.0024117 19.17578,17.6816404 V 284.47266 c 0,9.67923 -8.10536,17.68164 -19.17578,17.68164 H 234.53906 c -11.07042,0 -19.17383,-8.00241 -19.17383,-17.68164 V 11.128906 c 0,-9.6792287 8.10341,-17.6816404 19.17383,-17.6816404 z"
         id="path8623" />
    </g>
    <g
       id="rect10812">
      <path
         style="color:#000000;fill:#595959;stroke-width:20;stroke-linecap:round;stroke-linejoin:round;-inkscape-stroke:none"
         d="m 149.4813,252.62426 0.009,0.77353 h -38.2902 c -17.92672,0 -32.360485,27.77627 -32.360485,62.27769 v 18.61243 c 0,2.65468 0.113622,5.25141 0.279477,7.81684 h -0.196456 a 158.44854,160.33596 0 0 0 79.225754,138.85345 158.44854,160.33596 0 0 0 158.446,0 158.44854,160.33596 0 0 0 79.22576,-138.85345 v -73.66903 l -11.57173,67.67068 c -0.21147,1.23657 -0.53148,2.42903 -0.90482,3.59853 h 0.37908 c -4.33774,12.8889 -17.99658,21.38893 -32.54918,19.51327 L 218.40282,342.10475 h -18.75773 c 0.0515,-0.79752 0.10226,-1.59302 0.13827,-2.39982 a 143.47584,93.104929 0 0 0 93.1744,-87.00861 z"
         id="path8620" />
      <path
         style="color:#000000;fill:#ffffff;stroke-linecap:round;stroke-linejoin:round;-inkscape-stroke:none"
         d="m 149.48633,242.625 a 10.001,10.001 0 0 0 -1.85352,0.77344 h -36.43359 c -14.128127,0 -24.962446,10.47856 -31.775392,23.58984 -6.812945,13.11129 -10.583984,30.0423 -10.583984,48.6875 v 18.61133 c 0,2.56479 0.121234,4.9977 0.261718,7.38281 a 10.001,10.001 0 0 0 -0.179687,0.43555 c 9.11e-4,60.79695 32.068425,117.04111 84.181645,147.48633 52.11242,30.44486 116.42273,30.44486 168.53515,0 52.11322,-30.44522 84.18073,-86.68938 84.18164,-147.48633 V 268.43555 A 10.001,10.001 0 0 0 385.96289,266.75 l -11.57227,67.66992 c -0.10897,0.63722 -0.29631,1.37359 -0.57421,2.24414 a 10.001,10.001 0 0 0 0.004,0.80078 c -3.11065,7.62719 -11.80477,13.06868 -21.36914,11.83594 L 241.8457,335.04492 c 12.34489,-6.2069 23.22027,-13.6325 32.28321,-22.0957 17.83024,-16.65033 28.75833,-37.65964 28.82812,-60.22266 a 10.001,10.001 0 0 0 -9.99414,-10.02929 z m 3.63086,20.00195 128.74414,0.0645 c -2.53672,12.6147 -9.7084,24.73876 -21.38281,35.64062 -14.74184,13.7663 -36.48846,25.20218 -63.05665,31.65625 a 10.001,10.001 0 0 0 -7.6289,9.27149 c -0.0304,0.68112 -0.0758,1.40871 -0.12695,2.20117 a 10.001,10.001 0 0 0 9.97851,10.64453 h 18.11719 l 132.13281,17.03125 c 13.56201,1.74798 26.57718,-3.38996 35.17578,-12.75781 -4.53099,48.15578 -31.68612,91.50569 -73.51953,115.94531 -45.93448,26.83562 -102.42294,26.83562 -148.35742,0 C 117.61049,445.69411 89.394338,396.62676 88.962891,343.33594 a 10.001,10.001 0 0 0 0.134765,-1.87696 c -0.156796,-2.42531 -0.257812,-4.80253 -0.257812,-7.17187 v -18.61133 c 0,-15.85618 3.444473,-30.06461 8.330078,-39.4668 4.885608,-9.40218 10.230718,-12.81054 14.029298,-12.81054 h 38.29101 a 10.001,10.001 0 0 0 3.62696,-0.77149 z"
         id="path8617" />
    </g>
    <path
       style="color:#000000;fill:#ffffff;stroke-linecap:round;stroke-linejoin:round;-inkscape-stroke:none"
       d="m 201.04687,332.20312 a 10,10 0 0 0 -11.30273,8.5 10,10 0 0 0 8.49805,11.30274 c 26.87793,3.80639 46.70191,23.5678 60.00781,43.48242 13.3059,19.91462 19.37109,38.75977 19.37109,38.75977 a 10,10 0 0 0 12.57227,6.47656 10,10 0 0 0 6.47461,-12.57227 c 0,0 -6.7904,-21.32822 -21.78711,-43.77343 -14.99671,-22.44522 -38.92307,-47.23178 -73.83399,-52.17579 z"
       id="path8614" />
  </g>
</svg>
