<?xml version="1.0" encoding="UTF-8" standalone="no"?>
<!-- Created with Inkscape (http://www.inkscape.org/) -->

<svg
   width="512"
   height="512"
   viewBox="0 0 512 512"
   version="1.1"
   id="svg5"
   inkscape:version="1.1.1 (3bf5ae0d25, 2021-09-20)"
   sodipodi:docname="handBorderless.svg"
   xmlns:inkscape="http://www.inkscape.org/namespaces/inkscape"
   xmlns:sodipodi="http://sodipodi.sourceforge.net/DTD/sodipodi-0.dtd"
   xmlns="http://www.w3.org/2000/svg"
   xmlns:svg="http://www.w3.org/2000/svg">
  <sodipodi:namedview
     id="namedview7"
     pagecolor="#505050"
     bordercolor="#ffffff"
     borderopacity="1"
     inkscape:pageshadow="0"
     inkscape:pageopacity="0"
     inkscape:pagecheckerboard="1"
     inkscape:document-units="px"
     showgrid="false"
     inkscape:zoom="1.2312221"
     inkscape:cx="-16.650124"
     inkscape:cy="224.57362"
     inkscape:window-width="2658"
     inkscape:window-height="1351"
     inkscape:window-x="-2"
     inkscape:window-y="5"
     inkscape:window-maximized="0"
     inkscape:current-layer="layer1" />
  <defs
     id="defs2" />
  <g
     inkscape:label="Ebene 1"
     inkscape:groupmode="layer"
     id="layer1"
     style="display:inline">
    <path
       id="path8632"
       style="color:#000000;fill:#595959;stroke-width:20;stroke-linecap:round;stroke-linejoin:round;-inkscape-stroke:none"
       d="M 144.11719 24.410156 C 132.97016 24.410156 124.86133 32.407162 124.86133 42 L 124.86133 243.39844 L 147.63281 243.39844 A 10.001 10.001 0 0 1 149.48633 242.625 L 156.53516 242.62891 L 191.87891 35.941406 C 192.58652 31.803437 194.00104 27.943074 195.93945 24.410156 L 144.11719 24.410156 z M 224.45312 24.410156 C 217.83519 26.544785 212.86355 31.828349 211.72266 38.5 L 176.81445 242.63867 L 292.96289 242.69727 A 10.001 10.001 0 0 1 302.95703 252.72656 C 302.88724 275.28958 291.95915 296.29889 274.12891 312.94922 C 266.49133 320.08138 257.50083 326.42462 247.49414 331.97461 L 316.63086 331.97461 C 327.77789 331.97461 335.88672 323.97956 335.88672 314.38672 L 335.88672 42 C 335.88672 40.096523 335.48564 38.288347 334.88672 36.560547 L 240.61328 24.410156 L 224.45312 24.410156 z M 153.11523 262.62695 A 10.001 10.001 0 0 1 149.49023 263.39844 L 124.86133 263.39844 L 124.86133 314.38672 C 124.86133 323.97956 132.97016 331.97461 144.11719 331.97461 L 151.96484 331.97461 C 146.64369 324.53886 144.12656 315.18834 145.80469 305.375 L 153.11523 262.62695 z M 173.39453 262.63672 L 165.64844 307.93164 C 164.01693 317.47237 170.70399 326.39738 181.68359 327.8125 L 197.78906 329.88867 C 224.18668 323.41833 245.80618 312.03342 260.47852 298.33203 C 272.15293 287.43017 279.32461 275.30611 281.86133 262.69141 L 173.39453 262.63672 z " />
    <path
       id="path8626"
       style="color:#000000;fill:#595959;stroke-width:20;stroke-linecap:round;stroke-linejoin:round;-inkscape-stroke:none"
       d="M 229.68945 23.367188 C 220.51517 23.861134 213.15024 30.151856 211.72266 38.5 L 176.81445 242.63867 L 292.96289 242.69727 A 10.001 10.001 0 0 1 302.95703 252.72656 C 302.88724 275.28958 291.95915 296.29889 274.12891 312.94922 C 265.06597 321.41242 254.19059 328.83802 241.8457 335.04492 L 352.45117 349.30078 C 360.7262 350.36734 368.33426 346.42677 372.25391 340.4082 C 372.94706 339.18517 373.47512 337.87786 373.85742 336.5 C 374.10284 335.71099 374.28961 335.01062 374.39062 334.41992 L 385.96289 266.75 A 10.001 10.001 0 0 1 385.9707 266.73242 L 420.40039 65.394531 C 422.0319 55.853795 415.34288 46.930746 404.36328 45.515625 L 233.71875 23.521484 C 232.3463 23.344594 231.00006 23.296624 229.68945 23.367188 z M 173.39453 262.63672 L 165.64844 307.93164 C 164.01693 317.47237 170.70399 326.39738 181.68359 327.8125 L 197.78906 329.88867 C 224.18668 323.41833 245.80618 312.03342 260.47852 298.33203 C 272.15293 287.43017 279.32461 275.30611 281.86133 262.69141 L 173.39453 262.63672 z " />
    <path
       id="path8620"
       style="color:#000000;fill:#595959;stroke-width:20;stroke-linecap:round;stroke-linejoin:round;-inkscape-stroke:none"
       d="M 153.11719 262.62695 A 10.001 10.001 0 0 1 149.49023 263.39844 L 111.19922 263.39844 C 107.40064 263.39844 102.05553 266.8068 97.169922 276.20898 C 92.284317 285.61117 88.839844 299.8196 88.839844 315.67578 L 88.839844 334.28711 C 88.839844 336.65645 88.94086 339.03367 89.097656 341.45898 A 10.001 10.001 0 0 1 88.962891 343.33594 C 89.394338 396.62676 117.61049 445.69407 163.19336 472.32422 C 209.12784 499.15984 265.6163 499.15984 311.55078 472.32422 C 353.38419 447.8846 380.53932 404.53469 385.07031 356.37891 C 376.47171 365.74676 363.45654 370.8847 349.89453 369.13672 L 250.85156 356.37109 C 260.5509 365.0149 268.53825 374.88607 274.88086 384.37891 C 289.87757 406.82412 296.66797 428.15234 296.66797 428.15234 A 10 10 0 0 1 290.19336 440.72461 A 10 10 0 0 1 277.62109 434.24805 C 277.62109 434.24805 271.5559 415.4029 258.25 395.48828 C 244.9441 375.57366 225.12012 355.81225 198.24219 352.00586 A 10 10 0 0 1 196.24219 351.1543 A 10.001 10.001 0 0 1 194.05469 350.22266 A 10 10 0 0 1 192.08398 348.12109 A 10.001 10.001 0 0 1 190.67578 346.25 A 10 10 0 0 1 190.06836 343.36719 A 10.001 10.001 0 0 1 189.66602 341.46094 C 189.71717 340.66848 189.76257 339.94089 189.79297 339.25977 A 10.001 10.001 0 0 1 197.42188 329.98828 C 223.99007 323.53421 245.73668 312.09833 260.47852 298.33203 C 272.15293 287.43017 279.32461 275.30611 281.86133 262.69141 L 153.11719 262.62695 z " />
    <g
       id="rect10812-1"
       style="display:inline;fill:none;fill-opacity:1;stroke:#ffffff;stroke-opacity:1"
       transform="translate(1201.656,-29.369481)" />
  </g>
</svg>
